name Walk9.mot
datacolumns 19
datarows 15
range 1.47300000 1.48700000
endheader

                time	   L_ground_force_vx	   L_ground_force_vy	   L_ground_force_vz	   L_ground_force_px	   L_ground_force_py	   L_ground_force_pz	   R_ground_force_vx	   R_ground_force_vy	   R_ground_force_vz	   R_ground_force_px	   R_ground_force_py	   R_ground_force_pz	   L_ground_torque_x	   L_ground_torque_y	   L_ground_torque_z	   R_ground_torque_x	   R_ground_torque_y	   R_ground_torque_z	
          1.47300000	          0.00000000	          0.00000000	          0.00000000	          0.00000000	          0.00000000	          0.00000000	         36.31187932	        534.73482918	         28.15052091	         -0.27820097	          0.00000000	         -0.05836034	          0.00000000	          0.00000000	          0.00000000	          0.00000000	         -0.81179070	          0.00000000	
          1.47400000	          0.00000000	          0.00000000	          0.00000000	          0.00000000	          0.00000000	          0.00000000	         37.18467975	        537.22557351	         28.26853641	         -0.27803397	          0.00000000	         -0.05818946	          0.00000000	          0.00000000	          0.00000000	          0.00000000	         -0.83636194	          0.00000000	
          1.47500000	          0.00000000	          0.00000000	          0.00000000	          0.00000000	          0.00000000	          0.00000000	         37.96614899	        539.71394389	         28.34329763	         -0.27786777	          0.00000000	         -0.05816071	          0.00000000	          0.00000000	          0.00000000	          0.00000000	         -0.82017536	          0.00000000	
          1.47600000	          0.00000000	          0.00000000	          0.00000000	          0.00000000	          0.00000000	          0.00000000	         38.65399109	        542.17428839	         28.42196468	         -0.27774816	          0.00000000	         -0.05821745	          0.00000000	          0.00000000	          0.00000000	          0.00000000	         -0.77139732	          0.00000000	
          1.47700000	          0.00000000	          0.00000000	          0.00000000	          0.00000000	          0.00000000	          0.00000000	         39.28755773	        544.57742789	         28.53996027	         -0.27769340	          0.00000000	         -0.05826480	          0.00000000	          0.00000000	          0.00000000	          0.00000000	         -0.71174000	          0.00000000	
          1.47800000	          0.00000000	          0.00000000	          0.00000000	          0.00000000	          0.00000000	          0.00000000	         39.92008500	        546.91770646	         28.71697900	         -0.27769065	          0.00000000	         -0.05823159	          0.00000000	          0.00000000	          0.00000000	          0.00000000	         -0.66736433	          0.00000000	
          1.47900000	          0.00000000	          0.00000000	          0.00000000	          0.00000000	          0.00000000	          0.00000000	         40.59111766	        549.20535442	         28.94744733	         -0.27771111	          0.00000000	         -0.05812116	          0.00000000	          0.00000000	          0.00000000	          0.00000000	         -0.65522414	          0.00000000	
          1.48000000	          0.00000000	          0.00000000	          0.00000000	          0.00000000	          0.00000000	          0.00000000	         41.30213744	        551.46505078	         29.20657368	         -0.27772427	          0.00000000	         -0.05800742	          0.00000000	          0.00000000	          0.00000000	          0.00000000	         -0.67068393	          0.00000000	
          1.48100000	          0.00000000	          0.00000000	          0.00000000	          0.00000000	          0.00000000	          0.00000000	         42.03862571	        553.74249288	         29.47826876	         -0.27770710	          0.00000000	         -0.05795767	          0.00000000	          0.00000000	          0.00000000	          0.00000000	         -0.70111751	          0.00000000	
          1.48200000	          0.00000000	          0.00000000	          0.00000000	          0.00000000	          0.00000000	          0.00000000	         42.81731269	        556.08179755	         29.75078184	         -0.27764569	          0.00000000	         -0.05797802	          0.00000000	          0.00000000	          0.00000000	          0.00000000	         -0.74425109	          0.00000000	
          1.48300000	          0.00000000	          0.00000000	          0.00000000	          0.00000000	          0.00000000	          0.00000000	         43.66497679	        558.48771179	         29.98506927	         -0.27753462	          0.00000000	         -0.05804839	          0.00000000	          0.00000000	          0.00000000	          0.00000000	         -0.79556513	          0.00000000	
          1.48400000	          0.00000000	          0.00000000	          0.00000000	          0.00000000	          0.00000000	          0.00000000	         44.55310072	        560.92221797	         30.12803462	         -0.27738139	          0.00000000	         -0.05815500	          0.00000000	          0.00000000	          0.00000000	          0.00000000	         -0.83354380	          0.00000000	
          1.48500000	          0.00000000	          0.00000000	          0.00000000	          0.00000000	          0.00000000	          0.00000000	         45.40865541	        563.32976641	         30.16693991	         -0.27720338	          0.00000000	         -0.05826506	          0.00000000	          0.00000000	          0.00000000	          0.00000000	         -0.83777610	          0.00000000	
          1.48600000	          0.00000000	          0.00000000	          0.00000000	          0.00000000	          0.00000000	          0.00000000	         46.18650299	        565.65813731	         30.14837252	         -0.27701571	          0.00000000	         -0.05832432	          0.00000000	          0.00000000	          0.00000000	          0.00000000	         -0.81016301	          0.00000000	
          1.48700000	          0.00000000	          0.00000000	          0.00000000	          0.00000000	          0.00000000	          0.00000000	         46.89793568	        567.87678817	         30.14215863	         -0.27683017	          0.00000000	         -0.05829957	          0.00000000	          0.00000000	          0.00000000	          0.00000000	         -0.76827896	          0.00000000	
